# Rainbow Cube with Smooth Edge Blending
# Using only 8 vertices - one per corner
# Colors will interpolate smoothly across all edges
o RainbowCube

# 8 corner vertices with distinct vibrant colors
# Bottom layer (y = -1)
v -1.0 -1.0 -1.0 0.0 0.0 1.0
v 1.0 -1.0 -1.0 0.0 1.0 1.0
v 1.0 -1.0 1.0 0.0 1.0 0.0
v -1.0 -1.0 1.0 1.0 1.0 0.0

# Top layer (y = 1)
v -1.0 1.0 -1.0 1.0 0.0 1.0
v 1.0 1.0 -1.0 1.0 0.0 0.0
v 1.0 1.0 1.0 1.0 0.5 0.0
v -1.0 1.0 1.0 0.5 1.0 0.0

# Normals
vn 0.0 -1.0 0.0
vn 0.0 1.0 0.0
vn 0.0 0.0 1.0
vn 0.0 0.0 -1.0
vn -1.0 0.0 0.0
vn 1.0 0.0 0.0

usemtl Material
s off

# Bottom face
f 1//1 2//1 3//1
f 1//1 3//1 4//1

# Top face
f 5//2 7//2 6//2
f 5//2 8//2 7//2

# Front face (z = 1)
f 4//3 3//3 7//3
f 4//3 7//3 8//3

# Back face (z = -1)
f 1//4 5//4 6//4
f 1//4 6//4 2//4

# Left face (x = -1)
f 1//5 4//5 8//5
f 1//5 8//5 5//5

# Right face (x = 1)
f 2//6 6//6 7//6
f 2//6 7//6 3//6